<svg width="199" height="36" viewBox="0 0 199 36" fill="none" xmlns="http://www.w3.org/2000/svg">
<rect width="199" height="36" fill="#F5F5F5"/>
<g filter="url(#filter0_i_0_1)">
<path d="M21.0933 7.77588C20.9614 7.71729 20.6392 7.62207 20.1265 7.49023C19.6284 7.34375 18.9473 7.20459 18.083 7.07275C17.2334 6.94092 16.3105 6.875 15.3145 6.875C12.2822 6.875 9.9458 7.98096 8.30518 10.1929C6.6792 12.3901 5.86621 15.5615 5.86621 19.707C5.86621 23.6035 6.74512 26.5259 8.50293 28.4741C10.2607 30.4224 12.6118 31.3965 15.5562 31.3965C16.9624 31.3965 18.332 31.1255 19.665 30.5835C20.998 30.0415 22.1406 29.4556 23.0928 28.8257C24.0596 28.1958 24.543 27.8516 24.543 27.793L26.3447 30.7153C26.3447 30.8032 25.8027 31.2646 24.7188 32.0996C23.6494 32.9199 22.2798 33.6816 20.6099 34.3848C18.9399 35.0879 17.1016 35.4395 15.0947 35.4395C10.5391 35.4395 7.00146 34.1064 4.48193 31.4404C1.9624 28.7744 0.702637 24.9365 0.702637 19.9268C0.702637 16.5137 1.31787 13.54 2.54834 11.0059C3.77881 8.45703 5.52197 6.49414 7.77783 5.11719C10.0483 3.74023 12.7144 3.05176 15.7759 3.05176C17.2407 3.05176 18.7202 3.22021 20.2144 3.55713C21.7231 3.87939 23.0488 4.24561 24.1914 4.65576C25.334 5.05127 25.9053 5.26367 25.9053 5.29297L25.6855 12.9395H22.3018L21.0933 7.77588ZM31.3105 12.5C31.5449 12.4121 32.1309 12.229 33.0684 11.9507C34.0205 11.6577 35.1411 11.3794 36.4302 11.1157C37.7192 10.8374 38.9351 10.6982 40.0776 10.6982C42.8022 10.6982 44.8677 11.2402 46.2739 12.3242C47.6948 13.4082 48.4053 15.1953 48.4053 17.6855V31.3965L52.0088 32.2974V34.7803L45.0215 35L44.0767 31.8579C43.1099 32.8247 41.9893 33.667 40.7148 34.3848C39.4551 35.0879 38.1147 35.4395 36.6938 35.4395C34.5698 35.4395 32.9146 34.8535 31.728 33.6816C30.5415 32.4951 29.9482 30.8325 29.9482 28.6938C29.9482 26.2036 30.8418 24.4238 32.6289 23.3545C34.416 22.2705 36.9722 21.7285 40.2974 21.7285H43.9009V18.125C43.9009 16.8066 43.5347 15.8032 42.8022 15.1147C42.0698 14.4263 41.0078 14.082 39.6162 14.082C38.8105 14.082 38.0708 14.1333 37.397 14.2358C36.7231 14.3384 36.1885 14.4409 35.793 14.5435C35.4121 14.646 35.1777 14.7119 35.0898 14.7412L34.4526 18.125H31.5303L31.3105 12.5ZM40.7588 24.6509C38.5322 24.6509 36.9355 24.9512 35.9688 25.5518C35.0166 26.1523 34.5405 27.1265 34.5405 28.4741C34.5405 29.4995 34.8335 30.3198 35.4194 30.9351C36.0054 31.5503 36.811 31.8579 37.8364 31.8579C38.8325 31.8579 39.7773 31.5869 40.6709 31.0449C41.5645 30.5029 42.3262 29.917 42.9561 29.2871C43.5859 28.6572 43.9009 28.313 43.9009 28.2544V24.6509H40.7588ZM66.9502 35H54.4917V32.5171L58.3149 31.3965V3.95264L54.4917 3.05176V0.568848L62.9072 0.349121V31.3965L66.9502 32.5171V35ZM80.749 35H68.2905V32.5171L72.1138 31.3965V3.95264L68.2905 3.05176V0.568848L76.7061 0.349121V31.3965L80.749 32.5171V35ZM85.6929 3.73291C85.6929 2.73682 85.9785 1.96045 86.5498 1.40381C87.1211 0.847168 87.8096 0.568848 88.6152 0.568848C90.5635 0.568848 91.5376 1.62354 91.5376 3.73291C91.5376 4.69971 91.2373 5.46875 90.6367 6.04004C90.0361 6.59668 89.3623 6.875 88.6152 6.875C87.7217 6.875 87.0112 6.59668 86.4839 6.04004C85.9565 5.4834 85.6929 4.71436 85.6929 3.73291ZM94.46 35H82.7705V32.5171L86.5938 31.3965V14.7412L82.7705 13.8403V11.3794L91.0981 11.1597V31.3965L94.46 32.5171V35ZM105.666 14.3457C106.604 13.54 107.827 12.7344 109.335 11.9287C110.859 11.1084 112.426 10.6982 114.038 10.6982C116.44 10.6982 118.242 11.416 119.443 12.8516C120.644 14.2725 121.245 16.2573 121.245 18.8062V31.3965L124.606 32.5171V35H113.818V32.5171L116.74 31.3965V19.2456C116.74 17.6196 116.425 16.4258 115.795 15.6641C115.166 14.9023 114.133 14.5215 112.697 14.5215C111.555 14.5215 110.5 14.7925 109.533 15.3345C108.581 15.8765 107.783 16.4624 107.138 17.0923C106.494 17.7222 106.171 18.0664 106.171 18.125V31.3965L109.094 32.5171V35H97.8438V32.5171L101.667 31.3965V14.7412L97.8438 13.8403V11.3794L105.271 11.1597L105.666 14.3457ZM152.512 34.7803L144.865 35L144.514 32.4292C142.507 34.436 140.148 35.4395 137.438 35.4395C134.289 35.4395 131.923 34.3994 130.341 32.3193C128.774 30.2393 127.99 27.3828 127.99 23.75C127.99 19.7656 128.994 16.5942 131 14.2358C133.022 11.8774 135.996 10.6982 139.921 10.6982C141.386 10.6982 142.807 10.9399 144.184 11.4233V3.95264L140.361 3.05176V0.568848L148.688 0.349121V31.3965L152.512 32.2974V34.7803ZM144.184 15.2026C144.096 15.144 143.869 15.0488 143.503 14.917C143.151 14.7705 142.624 14.6313 141.921 14.4995C141.218 14.3677 140.397 14.3018 139.46 14.3018C134.963 14.3018 132.714 17.3047 132.714 23.3105C132.714 25.9473 133.168 28.0347 134.077 29.5728C135 31.0962 136.42 31.8579 138.339 31.8579C139.482 31.8579 140.485 31.6089 141.35 31.1108C142.229 30.6128 142.917 30.0708 143.415 29.4849C143.928 28.8989 144.184 28.562 144.184 28.4741V15.2026ZM163.278 14.4336C164.128 13.5107 165.131 12.6611 166.289 11.8848C167.46 11.0938 168.728 10.6982 170.09 10.6982C170.749 10.6982 171.372 10.7495 171.958 10.8521C172.558 10.9546 173.049 11.0645 173.43 11.1816C173.811 11.2842 174.045 11.3501 174.133 11.3794L173.913 17.9053H170.969L170.31 14.5215C168.815 14.5215 167.526 14.8804 166.442 15.5981C165.358 16.3159 164.472 17.1289 163.784 18.0371V31.3965L168.288 32.5171V35H155.456V32.5171L159.279 31.3965V14.7412L155.456 13.8403V11.3794L162.883 11.1597L163.278 14.4336ZM177.517 12.5C177.751 12.4121 178.337 12.229 179.274 11.9507C180.227 11.6577 181.347 11.3794 182.636 11.1157C183.925 10.8374 185.141 10.6982 186.284 10.6982C189.008 10.6982 191.074 11.2402 192.48 12.3242C193.901 13.4082 194.611 15.1953 194.611 17.6855V31.3965L198.215 32.2974V34.7803L191.228 35L190.283 31.8579C189.316 32.8247 188.195 33.667 186.921 34.3848C185.661 35.0879 184.321 35.4395 182.9 35.4395C180.776 35.4395 179.121 34.8535 177.934 33.6816C176.748 32.4951 176.154 30.8325 176.154 28.6938C176.154 26.2036 177.048 24.4238 178.835 23.3545C180.622 22.2705 183.178 21.7285 186.503 21.7285H190.107V18.125C190.107 16.8066 189.741 15.8032 189.008 15.1147C188.276 14.4263 187.214 14.082 185.822 14.082C185.017 14.082 184.277 14.1333 183.603 14.2358C182.929 14.3384 182.395 14.4409 181.999 14.5435C181.618 14.646 181.384 14.7119 181.296 14.7412L180.659 18.125H177.736L177.517 12.5ZM186.965 24.6509C184.738 24.6509 183.142 24.9512 182.175 25.5518C181.223 26.1523 180.747 27.1265 180.747 28.4741C180.747 29.4995 181.04 30.3198 181.625 30.9351C182.211 31.5503 183.017 31.8579 184.042 31.8579C185.039 31.8579 185.983 31.5869 186.877 31.0449C187.771 30.5029 188.532 29.917 189.162 29.2871C189.792 28.6572 190.107 28.313 190.107 28.2544V24.6509H186.965Z" fill="#2B4397"/>
</g>
<defs>
<filter id="filter0_i_0_1" x="0.702637" y="0.349121" width="197.512" height="39.0903" filterUnits="userSpaceOnUse" color-interpolation-filters="sRGB">
<feFlood flood-opacity="0" result="BackgroundImageFix"/>
<feBlend mode="normal" in="SourceGraphic" in2="BackgroundImageFix" result="shape"/>
<feColorMatrix in="SourceAlpha" type="matrix" values="0 0 0 0 0 0 0 0 0 0 0 0 0 0 0 0 0 0 127 0" result="hardAlpha"/>
<feOffset dy="4"/>
<feGaussianBlur stdDeviation="2"/>
<feComposite in2="hardAlpha" operator="arithmetic" k2="-1" k3="1"/>
<feColorMatrix type="matrix" values="0 0 0 0 0 0 0 0 0 0 0 0 0 0 0 0 0 0 0.25 0"/>
<feBlend mode="normal" in2="shape" result="effect1_innerShadow_0_1"/>
</filter>
</defs>
</svg>
